<?xml version="1.0" standalone="no"?>
<!DOCTYPE svg PUBLIC "-//W3C//DTD SVG 20010904//EN"
 "http://www.w3.org/TR/2001/REC-SVG-20010904/DTD/svg10.dtd">
<svg version="1.0" xmlns="http://www.w3.org/2000/svg"
 width="1080.000000pt" height="1080.000000pt" viewBox="0 0 1080.000000 1080.000000"
 preserveAspectRatio="xMidYMid meet">
<metadata>
Created by potrace 1.14, written by Peter Selinger 2001-2017
</metadata>
<g transform="translate(0.000000,1080.000000) scale(0.100000,-0.100000)"
fill="#000000" stroke="none">
<path d="M5131 10331 c-7 -5 -21 -6 -31 -4 -10 3 -21 0 -25 -7 -5 -8 -10 -8
-20 0 -17 14 -38 4 -29 -13 3 -7 -2 -3 -10 7 -9 11 -16 14 -16 8 0 -7 -7 -12
-16 -12 -9 0 -12 -5 -8 -12 6 -10 4 -10 -7 -2 -8 6 -24 10 -37 8 -14 -3 -25 2
-29 13 -6 15 -7 15 -13 -2 -4 -10 -18 -19 -33 -21 -17 -2 -25 1 -21 8 4 7 0 7
-12 1 -22 -11 -34 -11 -51 0 -13 8 -15 7 -17 -15 -1 -15 -38 -17 -48 -3 -5 6
-11 5 -17 -4 -5 -7 -13 -11 -19 -7 -5 3 -12 0 -15 -7 -3 -9 -22 -13 -56 -12
-28 1 -51 -2 -51 -6 0 -4 -9 -6 -20 -4 -11 2 -18 0 -15 -6 4 -5 3 -9 -2 -10
-4 0 -24 -2 -43 -4 -53 -4 -53 -4 -39 -22 10 -14 8 -13 -10 2 -14 11 -21 15
-18 8 5 -8 -3 -11 -28 -9 -23 2 -39 -2 -47 -13 -12 -14 -11 -14 5 -2 9 7 17 9
17 3 0 -13 -32 -25 -39 -15 -3 4 -14 9 -24 9 -13 2 -16 -3 -12 -20 4 -11 3
-16 -2 -11 -4 6 -16 11 -25 13 -13 2 -16 -2 -12 -15 3 -11 2 -14 -3 -8 -9 12
-63 14 -63 3 0 -5 -5 -8 -11 -8 -5 0 -7 4 -4 10 3 6 -1 7 -9 4 -9 -3 -16 -11
-16 -16 0 -6 -11 -8 -25 -6 -14 3 -25 1 -25 -4 0 -5 -4 -6 -10 -3 -5 3 -18 1
-28 -4 -13 -7 -23 -6 -31 2 -10 9 -12 9 -9 -2 2 -7 -3 -16 -11 -19 -8 -3 -11
0 -7 7 10 16 0 14 -18 -5 -10 -10 -16 -11 -16 -3 0 8 -5 8 -17 -2 -11 -10 -14
-10 -9 -1 12 20 -5 13 -25 -10 -12 -16 -18 -18 -19 -9 0 11 -3 12 -11 4 -6 -6
-18 -9 -27 -5 -11 4 -14 1 -10 -9 4 -10 -1 -15 -13 -15 -14 0 -15 3 -7 13 8
10 7 12 -6 7 -9 -3 -16 -10 -16 -16 0 -5 -4 -6 -10 -3 -5 3 -10 -1 -10 -10 0
-9 -5 -13 -10 -10 -6 4 -7 11 -3 18 3 6 -7 2 -23 -10 -16 -11 -40 -19 -52 -18
-13 1 -26 -4 -29 -11 -2 -7 -11 -10 -18 -8 -7 3 -21 -5 -30 -18 -11 -15 -15
-17 -12 -5 8 21 -9 23 -17 2 -5 -13 -10 -14 -27 -4 -15 8 -19 8 -15 0 4 -7 -1
-11 -13 -11 -11 0 -23 -5 -26 -10 -4 -6 -11 -7 -17 -4 -6 4 -8 2 -5 -3 8 -12
-20 -26 -34 -17 -5 3 -9 1 -9 -5 0 -5 -9 -8 -20 -6 -11 2 -18 0 -15 -4 3 -5
-2 -12 -11 -15 -8 -3 -13 -10 -9 -15 3 -5 0 -13 -6 -17 -7 -4 -9 -3 -5 4 3 6
2 13 -3 16 -5 3 -12 -1 -15 -10 -3 -8 -10 -12 -16 -9 -6 3 -13 -1 -16 -10 -5
-12 -9 -13 -21 -4 -11 10 -13 9 -11 -2 2 -8 -3 -13 -9 -11 -7 1 -13 -3 -13 -9
0 -6 -7 -8 -16 -5 -9 3 -12 2 -9 -5 4 -6 -1 -9 -11 -7 -13 2 -19 -3 -18 -15 2
-14 -1 -15 -13 -5 -11 9 -16 9 -23 -1 -4 -8 -13 -10 -19 -7 -6 4 -11 0 -11
-11 0 -15 -2 -16 -10 -3 -9 14 -15 7 -11 -14 1 -5 -5 -3 -14 4 -13 11 -14 10
-9 -5 5 -13 4 -16 -5 -11 -7 5 -18 0 -27 -10 -9 -11 -13 -14 -10 -7 4 6 1 15
-5 19 -8 5 -9 3 -5 -5 5 -8 0 -14 -14 -18 -12 -3 -19 -11 -16 -19 3 -8 0 -11
-8 -8 -8 3 -23 -5 -35 -17 -12 -13 -21 -17 -21 -10 0 7 -5 9 -10 6 -8 -5 -7
-12 2 -23 12 -14 10 -14 -9 -3 -19 10 -23 9 -23 -4 0 -8 -6 -14 -12 -13 -7 2
-12 -3 -10 -10 2 -10 -2 -10 -20 -1 -20 11 -21 10 -11 -3 10 -12 10 -15 -2
-16 -8 -1 -21 -3 -29 -4 -8 -1 -12 -7 -10 -13 3 -8 -6 -11 -25 -10 -23 1 -28
-1 -21 -10 12 -15 -15 -29 -32 -18 -7 3 -8 1 -4 -5 4 -7 2 -12 -4 -12 -6 0 -9
-4 -6 -9 3 -4 -6 -7 -20 -5 -16 1 -29 -5 -37 -17 -6 -10 -18 -19 -25 -19 -8 0
-12 -6 -8 -15 3 -8 2 -14 -2 -14 -20 3 -33 -2 -27 -11 3 -6 -1 -7 -9 -4 -10 4
-16 1 -16 -9 0 -8 -8 -14 -17 -13 -10 0 -17 -4 -16 -11 1 -6 -5 -10 -14 -9 -9
2 -29 -10 -44 -25 -18 -18 -29 -24 -33 -16 -2 7 -5 4 -5 -6 -1 -10 -5 -15 -11
-12 -5 3 -10 -1 -10 -9 0 -9 -5 -15 -12 -14 -7 2 -12 -4 -13 -12 -1 -8 -6 -14
-13 -12 -7 1 -12 -2 -12 -8 0 -5 -6 -7 -14 -4 -8 3 -19 -3 -26 -16 -6 -12 -17
-19 -23 -17 -7 2 -20 -5 -29 -15 -9 -11 -18 -18 -20 -16 -8 6 -37 -30 -30 -37
4 -4 -2 -5 -13 -3 -12 2 -19 -2 -18 -9 2 -7 -6 -10 -16 -8 -15 3 -18 -2 -17
-19 2 -19 -1 -22 -17 -18 -16 4 -19 2 -14 -12 6 -14 4 -15 -14 -5 -17 9 -20 8
-14 -2 6 -9 3 -11 -8 -6 -12 4 -15 1 -12 -14 4 -18 2 -19 -12 -7 -15 11 -16
11 -10 -6 6 -14 4 -17 -8 -12 -8 3 -15 1 -15 -5 0 -15 -49 -61 -59 -55 -5 3
-15 -2 -22 -11 -12 -14 -12 -16 0 -8 10 5 12 4 7 -3 -4 -7 -14 -12 -22 -12 -8
0 -12 -4 -9 -10 3 -5 -1 -10 -9 -10 -8 0 -18 -5 -22 -12 -5 -7 -3 -8 7 -3 12
8 12 6 0 -8 -15 -19 -36 -23 -25 -5 4 7 3 8 -5 4 -6 -4 -9 -12 -6 -17 4 -5 -1
-12 -9 -15 -9 -3 -13 -10 -10 -15 3 -5 -2 -9 -10 -9 -9 0 -15 -3 -15 -7 3 -20
-2 -24 -15 -14 -12 10 -13 8 -9 -10 5 -17 3 -20 -7 -14 -10 6 -12 4 -6 -10 6
-16 4 -16 -10 -4 -16 13 -16 12 -6 -7 10 -18 9 -21 -6 -20 -11 1 -16 -5 -14
-16 2 -11 -3 -18 -13 -18 -8 0 -15 -5 -15 -11 0 -5 -4 -7 -10 -4 -5 3 -10 -4
-10 -16 0 -18 -2 -20 -16 -9 -8 8 -14 9 -12 4 4 -15 -33 -64 -45 -57 -6 3 -7
1 -3 -5 11 -18 -23 -61 -45 -57 -16 3 -18 1 -8 -17 6 -11 7 -18 1 -14 -5 3
-15 -1 -22 -9 -10 -13 -10 -15 1 -12 8 2 4 -1 -9 -7 -12 -5 -22 -16 -22 -24 0
-7 -5 -10 -12 -6 -8 5 -9 2 -5 -9 3 -9 1 -19 -5 -23 -7 -4 -8 -3 -4 4 4 7 2
12 -3 12 -6 0 -11 -7 -11 -15 0 -8 -4 -15 -10 -15 -5 0 -10 -5 -10 -11 0 -5 5
-7 12 -3 7 4 8 3 4 -5 -4 -6 -12 -9 -17 -6 -5 4 -9 1 -9 -5 0 -6 -4 -9 -9 -5
-5 3 -13 0 -17 -6 -4 -8 -3 -9 4 -5 7 4 12 4 12 1 0 -11 -28 -35 -42 -35 -10
0 -9 -3 2 -10 11 -7 11 -10 2 -10 -8 0 -10 -5 -6 -12 5 -9 2 -8 -9 1 -15 12
-17 12 -11 -4 5 -13 4 -16 -4 -11 -8 5 -12 0 -12 -13 0 -12 -5 -21 -11 -21 -5
0 -7 -6 -3 -12 5 -8 2 -8 -10 1 -9 8 -16 10 -15 5 4 -23 -2 -35 -13 -28 -8 5
-8 1 2 -12 8 -10 11 -16 6 -12 -10 8 -47 -23 -40 -34 3 -4 -2 -8 -10 -8 -8 0
-16 -10 -18 -22 -2 -13 -9 -22 -16 -21 -6 2 -12 -4 -12 -13 0 -8 -4 -12 -10
-9 -6 3 -7 -1 -4 -9 4 -9 -1 -18 -10 -22 -9 -3 -13 -10 -10 -16 3 -5 -3 -12
-14 -15 -13 -3 -18 -11 -15 -19 3 -8 0 -14 -6 -14 -6 0 -8 -7 -5 -15 4 -8 1
-15 -5 -15 -6 0 -11 -5 -11 -11 0 -5 5 -7 12 -3 7 4 8 3 4 -5 -4 -6 -11 -9
-16 -6 -11 7 -32 -30 -23 -39 3 -3 1 -6 -5 -6 -7 0 -12 -7 -12 -16 0 -9 -5
-12 -12 -8 -7 4 -8 3 -4 -5 8 -13 -18 -43 -29 -33 -4 4 -2 -4 5 -17 8 -15 8
-21 1 -17 -6 4 -11 2 -11 -4 0 -6 -4 -9 -9 -6 -5 3 -12 -1 -15 -10 -4 -9 -2
-13 5 -8 6 3 3 -5 -6 -20 -10 -14 -22 -23 -29 -19 -6 4 -5 -1 3 -10 12 -15 12
-17 -1 -12 -11 5 -15 0 -14 -17 0 -13 -5 -23 -11 -24 -24 -3 -25 -4 -14 -18 9
-10 8 -15 -4 -20 -8 -3 -15 -12 -15 -21 0 -8 -5 -15 -11 -15 -5 0 -7 -4 -4
-10 3 -5 -2 -10 -12 -10 -15 0 -16 -2 -3 -10 12 -8 12 -10 1 -10 -11 0 -11 -3
0 -17 13 -15 12 -15 -9 -4 -12 6 -21 8 -20 4 1 -4 -4 -19 -11 -32 -7 -12 -11
-31 -8 -42 3 -10 2 -18 -2 -17 -3 0 -13 0 -21 -1 -13 -1 -13 -2 0 -11 11 -7
12 -10 2 -10 -8 0 -12 -6 -10 -12 3 -7 -4 -21 -14 -32 -10 -11 -18 -25 -18
-30 0 -6 5 -4 10 4 7 11 10 11 10 2 0 -7 -10 -17 -22 -22 -13 -5 -17 -9 -10
-9 7 -1 10 -6 7 -11 -4 -6 -11 -7 -17 -4 -7 4 -8 2 -4 -5 4 -6 2 -19 -6 -28
-9 -12 -9 -15 -1 -9 9 5 11 2 7 -8 -3 -9 -10 -16 -15 -16 -4 0 -6 -7 -3 -15 4
-8 1 -15 -5 -15 -6 0 -8 -8 -4 -17 6 -15 4 -16 -9 -5 -13 10 -15 9 -15 -10 -1
-43 -3 -49 -15 -42 -8 5 -8 2 1 -10 11 -13 11 -16 1 -14 -7 2 -14 -6 -16 -17
-6 -39 -10 -55 -19 -62 -4 -4 -5 -2 0 6 6 10 4 12 -4 7 -6 -4 -9 -16 -6 -27 4
-11 2 -19 -6 -19 -8 0 -8 -4 1 -16 11 -12 11 -15 -1 -12 -10 2 -14 -7 -15 -29
0 -18 -4 -36 -9 -40 -4 -5 -5 -2 0 6 6 10 4 12 -4 7 -9 -6 -9 -11 1 -24 11
-14 10 -15 -7 -8 -11 4 -16 4 -12 0 4 -4 2 -14 -5 -21 -9 -11 -9 -16 0 -22 8
-5 6 -12 -7 -23 -10 -8 -18 -26 -17 -39 1 -13 -6 -27 -14 -31 -11 -5 -8 -7 10
-8 l25 -1 -24 -10 c-20 -8 -22 -11 -10 -26 12 -14 12 -16 0 -8 -11 6 -13 3 -9
-13 4 -12 2 -20 -2 -17 -5 3 -11 1 -14 -4 -4 -5 -1 -13 5 -17 8 -5 4 -13 -12
-26 -13 -11 -19 -17 -12 -14 6 4 14 2 18 -4 3 -5 2 -10 -4 -10 -6 0 -7 -7 -4
-17 4 -11 3 -14 -5 -9 -8 5 -12 -2 -13 -18 -2 -35 -3 -39 -13 -55 -7 -11 -6
-12 5 -6 12 8 12 6 0 -8 -9 -12 -10 -17 -2 -17 7 0 9 -5 6 -10 -4 -6 -11 -7
-17 -4 -7 5 -9 0 -6 -14 4 -13 1 -22 -5 -22 -8 0 -8 -3 1 -8 7 -5 10 -16 6
-26 -5 -14 -9 -14 -23 -4 -14 12 -15 11 -2 -4 11 -15 11 -21 0 -35 -13 -16
-12 -17 3 -5 12 10 18 10 24 1 4 -8 3 -9 -4 -5 -7 4 -12 1 -12 -8 0 -9 -6 -16
-12 -16 -9 0 -8 -4 2 -10 10 -6 11 -10 3 -10 -17 0 -17 -32 0 -49 6 -8 7 -11
2 -8 -6 3 -17 -3 -24 -15 -7 -11 -8 -17 -3 -14 6 3 9 -5 8 -18 0 -13 -4 -22
-8 -19 -5 2 -8 -3 -8 -12 0 -9 4 -13 10 -10 5 3 10 2 10 -4 0 -5 -4 -11 -10
-13 -5 -1 -10 -24 -11 -51 -1 -26 -8 -52 -15 -58 -12 -10 -13 -77 0 -97 8 -14
-10 -25 -26 -17 -7 4 -4 -1 6 -9 15 -12 16 -16 5 -16 -12 0 -12 -2 1 -10 13
-9 7 -14 -12 -11 -4 0 -5 -6 -2 -14 4 -8 11 -12 16 -9 6 4 3 -5 -6 -18 -9 -14
-13 -28 -9 -32 4 -4 1 -11 -7 -16 -11 -7 -12 -10 -2 -10 8 0 10 -5 6 -12 -11
-18 -11 -81 0 -96 7 -9 5 -16 -3 -22 -9 -5 -10 -9 -2 -14 16 -11 2 -28 -17
-21 -13 5 -12 2 3 -15 15 -16 16 -23 6 -33 -10 -9 -11 -8 -6 8 5 16 5 17 -3 5
-13 -17 4 -43 22 -33 6 4 5 -1 -3 -10 -16 -20 -25 -23 -15 -4 4 6 3 9 -1 4
-11 -9 -13 -57 -3 -51 4 3 8 0 8 -6 0 -6 6 -8 13 -4 7 4 9 3 4 -2 -5 -5 -13
-10 -18 -10 -5 -1 -12 -2 -16 -3 -4 0 2 -8 13 -17 13 -11 14 -14 3 -11 -9 3
-16 -1 -16 -9 0 -7 4 -11 10 -7 5 3 7 -8 5 -23 -2 -21 1 -28 12 -26 10 1 7 -5
-7 -17 l-22 -18 22 -12 c21 -11 21 -11 1 -8 -12 3 -21 -1 -21 -9 0 -7 4 -11 9
-8 4 3 8 -4 8 -15 0 -12 -5 -21 -12 -21 -6 0 -3 -7 8 -16 13 -11 14 -14 3 -11
-9 3 -16 -1 -16 -9 0 -7 4 -11 9 -8 4 3 8 -4 8 -15 0 -12 -6 -21 -12 -21 -7
-1 -2 -8 12 -16 21 -13 22 -15 4 -11 -13 3 -21 -1 -21 -10 0 -8 5 -12 12 -10
6 3 11 -3 11 -13 0 -10 -3 -18 -6 -18 -20 2 -19 -5 1 -23 13 -11 17 -17 9 -13
-13 7 -13 5 -1 -9 11 -14 11 -17 0 -17 -11 0 -11 -2 0 -9 11 -7 12 -13 3 -23
-9 -11 -9 -17 0 -26 9 -9 9 -12 -2 -12 -9 0 -8 -5 6 -16 10 -8 13 -13 6 -9 -6
3 -12 2 -12 -3 0 -6 6 -12 14 -15 18 -7 15 -35 -5 -48 -11 -7 -11 -9 4 -9 20
0 22 -11 5 -28 -9 -9 -9 -12 1 -12 11 0 11 -3 0 -17 -8 -10 -9 -14 -2 -10 8 5
11 -2 11 -21 -1 -16 2 -34 6 -40 3 -6 0 -13 -6 -15 -9 -4 -8 -6 3 -6 11 -1 15
-10 14 -31 -1 -17 2 -33 7 -36 4 -3 4 -13 -1 -21 -5 -9 -5 -29 -1 -44 6 -19 4
-29 -3 -33 -7 -2 -4 -5 7 -5 15 -1 16 -4 6 -16 -13 -16 -4 -39 12 -29 7 4 8 2
4 -5 -4 -6 -12 -9 -17 -6 -5 4 -9 2 -9 -4 0 -5 5 -11 12 -13 6 -2 11 -18 10
-36 0 -18 4 -32 11 -32 7 0 6 -4 -3 -10 -12 -8 -12 -10 -1 -10 8 0 11 -3 8 -6
-3 -4 -2 -15 4 -25 8 -15 6 -18 -8 -13 -13 5 -11 1 5 -10 17 -14 20 -21 12
-36 -7 -13 -7 -21 0 -25 6 -4 8 -11 5 -16 -4 -5 1 -12 10 -15 13 -6 14 -8 3
-15 -10 -7 -11 -9 0 -9 7 0 10 -5 7 -10 -4 -6 -12 -7 -18 -4 -7 4 -2 -3 11
-15 22 -22 30 -37 13 -26 -5 3 -12 1 -16 -5 -3 -5 0 -10 8 -10 8 0 18 -7 21
-16 4 -10 2 -13 -6 -8 -7 5 -8 3 -2 -7 4 -8 9 -18 10 -24 5 -30 10 -41 24 -52
13 -11 12 -12 -5 -13 -16 0 -17 -2 -5 -9 8 -6 18 -7 23 -4 5 3 4 -4 -2 -15 -8
-15 -7 -21 3 -25 9 -4 12 -14 9 -26 -3 -14 -1 -21 8 -21 11 0 11 -2 -1 -10
-11 -7 -11 -10 -2 -10 10 0 10 -5 2 -20 -6 -11 -7 -20 -3 -19 20 3 34 -2 28
-11 -3 -5 0 -10 7 -10 9 0 9 -3 -2 -10 -13 -8 -12 -10 3 -10 9 0 17 -4 17 -10
0 -5 -8 -7 -18 -4 -16 5 -16 5 1 -6 9 -6 17 -22 17 -35 0 -14 5 -25 11 -25 8
0 7 -6 -2 -17 -12 -15 -12 -16 3 -11 11 5 15 2 13 -10 -1 -9 3 -20 8 -24 6 -3
12 -12 13 -20 9 -54 15 -72 24 -78 7 -4 11 -10 11 -14 -4 -27 1 -56 8 -52 5 3
12 -1 15 -10 4 -10 2 -13 -7 -9 -6 4 -4 0 6 -8 14 -11 15 -16 5 -20 -9 -4 -8
-6 3 -6 12 -1 15 -9 13 -31 -3 -25 0 -30 19 -31 21 0 21 -1 2 -9 -11 -5 -14
-9 -6 -9 11 -1 11 -4 1 -16 -11 -13 -10 -14 3 -10 8 4 19 0 23 -7 14 -22 15
-48 1 -48 -6 0 -4 -5 6 -11 9 -6 14 -15 11 -21 -5 -7 0 -9 13 -6 16 4 19 1 18
-23 -1 -15 3 -27 8 -26 5 1 12 -4 15 -12 3 -9 0 -11 -9 -6 -8 4 -4 -2 8 -14
13 -12 23 -29 23 -37 0 -8 4 -12 10 -9 14 9 12 -8 -2 -24 -10 -11 -10 -13 -1
-7 8 4 13 2 13 -6 0 -7 12 -22 28 -32 18 -12 21 -16 7 -12 -19 6 -19 5 -2 -8
11 -9 15 -20 10 -31 -4 -12 -3 -16 4 -12 6 4 17 -1 24 -10 12 -14 12 -16 -1
-8 -9 5 -7 -1 5 -14 11 -13 19 -33 17 -45 -2 -15 0 -17 6 -8 7 11 10 10 16 -3
3 -9 3 -22 -1 -27 -3 -7 -1 -8 5 -4 12 7 35 -27 25 -38 -3 -3 -1 -6 5 -6 7 0
12 -9 12 -20 0 -11 6 -20 14 -20 8 0 18 -5 22 -12 4 -6 3 -8 -3 -5 -5 3 -10 0
-10 -8 0 -7 8 -12 18 -10 12 3 16 -1 12 -11 -3 -8 0 -14 6 -14 6 0 11 -5 11
-11 0 -5 -5 -7 -12 -3 -7 4 -8 3 -4 -5 4 -6 12 -9 17 -6 8 6 14 -16 10 -38 -1
-5 2 -6 6 -4 8 5 38 -22 38 -33 0 -3 4 -4 8 -2 5 1 6 -2 3 -7 -4 -5 0 -16 8
-24 8 -8 12 -17 9 -21 -4 -3 1 -6 10 -6 9 0 17 -10 19 -22 2 -13 9 -22 16 -20
9 2 11 -4 7 -18 -4 -11 -3 -20 2 -19 4 1 15 1 23 0 13 -1 13 -2 0 -11 -8 -5
-10 -10 -4 -10 11 0 28 -35 25 -53 -1 -4 2 -6 6 -6 5 1 16 1 27 0 16 -1 17 -3
5 -18 -10 -11 -10 -14 -1 -9 6 4 12 2 12 -3 0 -6 7 -11 16 -11 8 0 12 -4 9
-10 -3 -6 -1 -10 5 -10 6 0 8 -5 5 -10 -3 -5 1 -10 9 -10 9 0 16 -9 16 -20 0
-11 5 -20 11 -20 14 0 43 -29 36 -36 -8 -8 56 -72 66 -67 4 2 7 -4 7 -15 0
-10 12 -25 26 -32 16 -9 24 -20 21 -31 -3 -12 1 -15 17 -11 21 4 21 4 1 -12
-19 -15 -19 -16 -1 -9 15 5 17 3 11 -7 -6 -10 -4 -12 8 -7 9 3 16 3 16 -1 -3
-20 3 -32 16 -32 14 0 20 -13 16 -34 -1 -5 5 -3 14 4 9 7 15 9 14 4 -5 -26 2
-45 13 -38 10 6 10 4 0 -8 -11 -14 -10 -16 11 -14 20 3 24 -1 22 -19 -1 -18 2
-21 19 -18 17 4 18 3 6 -6 -13 -9 -12 -11 4 -11 11 0 16 -3 13 -7 -9 -8 31
-36 42 -29 5 3 8 -2 7 -12 0 -10 6 -17 15 -16 9 1 16 -5 16 -12 0 -7 -5 -10
-10 -7 -6 3 -7 1 -3 -5 4 -7 13 -12 20 -12 7 0 25 -15 41 -34 16 -19 33 -32
39 -29 5 4 7 -1 3 -10 -4 -11 -1 -15 14 -12 12 2 19 -2 19 -11 0 -8 7 -17 15
-20 8 -4 12 -10 9 -15 -3 -5 2 -6 10 -3 11 4 16 0 16 -10 0 -9 7 -16 16 -16 9
0 14 -6 11 -13 -3 -9 4 -12 25 -11 22 2 27 -1 19 -9 -16 -16 -14 -27 4 -21 8
4 17 -1 21 -10 3 -9 15 -16 26 -16 12 0 17 -4 12 -12 -5 -8 -1 -9 12 -4 15 5
16 4 7 -5 -17 -17 36 -62 55 -46 10 8 12 7 10 -3 -2 -8 2 -14 9 -15 6 0 15 -4
20 -9 5 -5 2 -6 -6 -1 -10 6 -12 4 -7 -4 5 -7 15 -10 23 -6 13 4 14 3 3 -10
-11 -13 -10 -14 4 -9 10 4 16 1 16 -7 0 -7 3 -9 7 -6 3 4 12 -2 20 -13 7 -10
20 -17 28 -14 10 4 13 0 10 -16 -3 -17 -1 -19 9 -11 16 13 27 4 19 -15 -3 -8
-2 -14 3 -13 20 3 47 -1 41 -7 -9 -9 19 -34 37 -34 8 0 18 -5 22 -12 5 -7 3
-8 -6 -3 -8 5 -11 4 -6 -3 4 -6 14 -8 23 -5 11 4 14 3 9 -5 -5 -8 0 -12 14
-12 12 0 18 -4 15 -10 -3 -5 1 -10 9 -10 9 0 16 -4 16 -10 0 -5 11 -10 25 -10
14 0 25 -6 25 -13 0 -17 36 -47 56 -47 8 0 12 -4 9 -10 -4 -6 5 -10 20 -10 20
0 26 -4 21 -16 -3 -8 -2 -13 3 -10 12 8 63 -19 54 -27 -3 -4 -1 -7 5 -7 7 0
12 5 12 11 0 6 9 1 21 -12 11 -13 17 -18 14 -11 -6 11 -3 12 12 3 11 -6 23 -8
26 -5 3 3 4 -3 3 -13 0 -10 5 -17 12 -15 6 1 12 -3 12 -9 0 -5 5 -7 10 -4 6 3
10 1 10 -5 0 -6 5 -8 12 -4 8 5 9 2 5 -9 -3 -9 -1 -19 5 -23 7 -4 8 -3 4 4 -4
7 -1 12 9 12 11 0 15 -5 12 -14 -4 -10 0 -12 14 -9 11 3 19 0 19 -6 0 -7 4
-10 9 -6 5 3 15 -1 23 -8 7 -8 21 -13 31 -11 9 1 20 -3 24 -8 3 -6 1 -8 -5 -4
-6 3 -13 3 -16 -2 -2 -4 7 -9 20 -10 14 -1 32 -9 41 -18 9 -8 22 -13 29 -10 8
3 14 1 14 -4 0 -6 7 -10 15 -10 8 0 15 -5 15 -11 0 -6 9 -9 20 -6 15 4 20 0
20 -13 0 -14 5 -17 21 -13 15 4 27 0 35 -12 8 -11 14 -15 14 -11 0 5 7 3 15
-4 8 -6 19 -9 25 -5 5 3 10 1 10 -6 0 -7 8 -9 21 -6 17 4 18 3 8 -9 -10 -12
-9 -13 6 -8 13 5 16 4 11 -4 -4 -7 -2 -12 3 -12 6 0 11 6 11 13 0 6 6 3 12 -8
16 -29 16 -29 35 -14 14 12 15 12 9 0 -6 -9 -5 -12 5 -9 8 3 22 -4 32 -15 12
-14 17 -16 17 -6 0 11 2 11 10 -1 9 -13 10 -13 11 0 0 10 3 8 9 -5 5 -12 9
-14 9 -6 1 11 5 10 16 -5 10 -13 14 -14 15 -5 0 11 3 11 15 1 8 -6 20 -8 26
-4 8 4 9 3 5 -4 -5 -8 0 -12 13 -12 12 0 21 -5 21 -11 0 -6 7 -9 15 -5 21 8
46 -4 38 -18 -4 -6 2 -4 12 4 17 14 18 13 12 -2 -4 -13 -2 -15 10 -11 10 4 14
2 9 -5 -3 -6 -1 -14 5 -18 8 -4 9 -3 5 4 -4 7 -2 12 3 12 6 0 11 -6 11 -12 0
-9 4 -8 10 2 8 12 10 12 10 1 0 -8 3 -12 6 -8 4 3 13 0 20 -8 8 -8 22 -11 31
-8 10 4 14 2 10 -4 -5 -7 0 -9 13 -6 14 4 20 0 20 -11 0 -11 4 -14 13 -9 22
14 36 12 29 -5 -6 -16 -4 -16 20 0 28 19 40 15 30 -10 -5 -15 -4 -15 11 -3 13
10 17 10 17 1 0 -7 7 -10 14 -7 10 4 13 1 10 -7 -3 -7 2 -13 11 -13 9 0 14 6
11 13 -3 8 0 11 9 7 8 -3 12 -9 9 -14 -5 -10 7 -12 43 -10 11 1 24 -3 28 -9 5
-8 10 -8 20 0 10 8 15 8 21 -1 5 -8 3 -9 -6 -4 -8 5 -11 4 -6 -3 4 -6 14 -8
23 -5 12 5 14 3 8 -8 -8 -12 -6 -12 8 0 15 12 17 11 17 -5 1 -18 1 -18 11 -1
6 9 15 15 20 12 5 -4 7 -10 4 -15 -3 -5 -1 -11 5 -15 5 -3 10 -2 10 3 0 9 42
8 57 -1 5 -3 15 -2 23 3 9 6 19 3 28 -8 7 -9 11 -12 8 -6 -3 7 2 14 12 16 11
3 19 0 19 -8 0 -7 -5 -10 -10 -7 -6 3 -7 1 -3 -6 6 -9 11 -9 22 0 8 7 14 7 14
1 0 -5 7 -13 16 -16 8 -3 13 -2 10 3 -3 5 1 11 9 15 8 3 14 2 14 -2 -3 -21 3
-31 20 -29 11 0 17 5 15 9 -3 4 -1 8 4 8 6 0 13 -8 17 -17 6 -17 7 -17 21 1 8
12 14 15 14 7 0 -10 3 -11 14 -2 10 8 16 9 21 1 3 -6 10 -8 15 -5 5 3 13 -3
19 -12 10 -17 10 -17 11 0 0 9 5 17 11 17 5 0 8 -4 5 -9 -3 -4 7 -6 22 -4 44
7 64 5 76 -8 8 -9 7 -10 -3 -4 -10 6 -12 4 -7 -4 6 -8 12 -9 20 -2 7 6 15 8
19 5 9 -10 87 -11 87 -2 0 5 10 4 22 -3 18 -10 20 -9 14 7 -5 16 -4 17 6 4 15
-17 49 -20 60 -5 5 6 8 5 8 -2 0 -7 7 -10 17 -6 10 4 14 2 9 -5 -3 -6 -2 -13
3 -16 5 -4 13 -1 17 5 5 8 3 9 -7 4 -8 -5 -11 -4 -6 1 11 12 57 13 57 1 0 -5
7 -4 15 3 15 13 21 2 8 -16 -5 -5 -1 -1 9 8 11 12 18 14 20 6 3 -7 9 -8 18 -3
8 5 25 10 38 11 19 2 21 0 11 -12 -9 -12 -15 -12 -28 -2 -14 12 -14 11 -2 -5
10 -13 17 -15 27 -6 7 6 18 8 23 4 6 -3 8 0 5 8 -3 8 1 14 10 14 8 0 13 -4 10
-9 -8 -12 10 -10 24 4 16 16 16 -4 0 -22 -11 -12 -10 -12 4 -1 9 7 23 9 30 5
10 -6 10 -4 0 9 -12 14 -11 16 7 14 11 0 18 -4 15 -8 -2 -4 5 -9 16 -12 11 -3
23 0 27 5 3 6 1 8 -5 4 -6 -3 -13 -3 -16 2 -2 4 6 8 20 8 17 0 23 -4 19 -14
-5 -13 -3 -13 11 -1 24 20 47 21 39 1 -5 -12 -1 -12 16 4 23 21 28 21 39 4 5
-8 13 -9 21 -4 23 14 61 13 55 -2 -3 -7 0 -16 6 -20 6 -4 8 -3 5 2 -3 6 -2 16
4 24 7 12 9 12 9 1 0 -11 3 -11 17 0 15 12 16 12 10 -6 -7 -19 -6 -19 7 -1 8
10 21 16 28 14 7 -3 19 2 26 11 10 14 11 13 6 -4 -6 -16 -4 -18 6 -8 9 9 17 9
31 0 14 -9 21 -7 36 9 10 11 14 14 9 7 -6 -10 -4 -12 8 -7 9 3 16 11 16 17 0
8 3 8 11 0 6 -6 18 -9 27 -6 11 5 13 2 8 -8 -4 -8 -1 -6 7 4 15 18 52 14 41
-5 -3 -5 3 -4 14 3 12 7 18 17 15 23 -4 5 -1 6 8 0 20 -12 40 -14 33 -3 -3 5
-1 9 5 9 5 0 11 -6 14 -12 3 -10 7 -10 20 1 10 7 17 9 17 3 0 -6 8 -9 18 -7 9
2 21 4 25 4 5 1 6 5 3 10 -3 5 10 8 30 6 39 -4 67 3 60 14 -8 12 72 5 87 -8
13 -10 15 -9 10 11 -5 23 -5 23 11 3 10 -11 15 -15 12 -8 -8 15 10 27 19 13 5
-8 11 -7 21 1 11 9 14 8 14 -2 1 -10 5 -9 14 4 12 16 14 16 20 1 5 -13 9 -14
20 -5 10 8 16 9 21 1 4 -7 12 -7 24 0 10 5 21 6 25 3 3 -3 6 2 6 13 1 19 1 19
15 0 12 -16 15 -17 15 -4 0 9 8 15 18 14 10 0 16 6 16 16 -1 11 3 15 9 11 7
-4 20 -8 29 -8 14 -1 15 1 6 12 -6 8 -7 13 -2 12 5 -1 11 0 14 1 22 8 39 7 33
-3 -4 -7 1 -5 12 3 10 8 20 14 22 13 14 -11 23 0 12 15 -7 9 -1 6 14 -8 21
-18 26 -20 21 -7 -5 13 -2 16 10 11 10 -4 16 -1 16 7 0 11 3 11 10 -1 6 -10
10 -11 10 -2 0 6 7 12 16 12 9 0 12 -5 8 -12 -4 -7 -3 -8 4 -4 7 4 12 15 13
24 0 11 2 13 6 4 4 -10 8 -10 19 -1 11 9 14 9 14 -1 0 -9 4 -9 13 -2 6 6 31 9
54 8 23 -1 40 1 37 6 -3 5 -10 5 -16 2 -7 -4 -8 -2 -4 5 4 6 12 9 17 6 5 -4 9
0 9 7 0 8 3 9 8 3 4 -5 21 -10 37 -9 23 0 30 4 28 20 -2 19 -1 19 13 0 14 -20
14 -20 15 0 0 18 1 18 9 -1 7 -17 9 -17 9 -3 1 11 6 15 16 12 8 -4 15 -1 15 5
0 6 5 11 11 11 5 0 7 -5 3 -12 -4 -7 -3 -8 4 -4 7 4 12 15 13 24 0 9 3 12 5 5
4 -8 11 -6 24 7 11 11 28 17 40 15 11 -2 18 0 15 6 -6 8 8 13 28 10 4 0 7 3 7
9 0 6 6 9 13 8 6 -2 11 3 9 10 -2 10 2 10 17 2 17 -9 19 -7 16 10 -2 12 0 18
6 14 5 -3 16 0 24 6 8 6 20 8 27 4 9 -6 9 -3 -1 9 -12 15 -12 17 4 11 13 -5
16 -4 11 4 -5 8 -2 10 8 6 9 -4 16 -1 16 6 0 7 7 10 16 6 8 -3 12 -2 9 4 -7
12 26 29 44 22 9 -3 11 0 6 8 -6 10 -3 12 10 6 15 -5 16 -4 5 9 -12 14 -10 15
14 11 17 -3 24 -1 20 6 -10 16 18 28 35 15 10 -8 13 -8 8 -1 -4 7 3 14 18 18
17 4 23 11 18 19 -4 8 -1 7 10 -2 14 -11 18 -11 23 3 4 10 12 15 20 12 8 -3
11 2 9 15 -4 18 -2 19 12 7 13 -10 17 -10 20 0 3 6 11 12 19 12 13 0 19 13 15
33 -1 5 3 6 8 2 6 -3 8 -13 5 -23 -3 -9 2 -6 10 8 8 14 16 21 16 15 0 -5 5 -2
11 7 5 10 17 18 24 18 8 0 15 5 15 10 0 6 6 10 14 10 8 0 17 6 19 13 4 9 6 9
6 0 1 -7 6 -13 12 -13 5 0 7 4 4 10 -8 13 56 52 78 46 13 -3 15 -1 8 8 -7 8
-4 16 11 25 16 10 19 10 13 -1 -3 -7 1 -4 9 6 9 11 16 16 16 12 0 -5 9 2 21
15 11 13 18 18 14 12 -4 -8 -1 -11 9 -7 9 3 14 11 13 17 -1 6 3 11 10 12 7 0
19 9 28 20 9 11 14 14 10 8 -3 -7 -1 -13 4 -13 6 0 11 5 11 11 0 5 5 7 12 3 8
-5 9 -2 5 10 -5 14 -3 17 8 12 8 -3 14 0 12 7 -1 7 5 12 13 12 22 1 41 15 35
26 -4 5 1 9 10 9 11 0 15 5 12 14 -4 10 -1 13 9 9 7 -3 14 0 14 6 0 6 7 11 15
11 8 0 19 10 26 21 9 17 13 19 20 8 6 -10 9 -7 9 11 0 20 2 22 10 10 8 -12 10
-12 10 -1 0 8 3 12 6 9 10 -11 67 50 59 64 -6 10 -5 11 5 1 11 -10 17 -7 33
15 13 19 17 21 13 7 -5 -17 -4 -18 6 -4 7 8 21 18 32 22 11 5 16 13 12 23 -3
8 -2 12 4 9 5 -3 18 -1 27 5 16 10 16 11 -2 5 -15 -4 -17 -3 -9 5 6 6 20 12
32 13 11 0 19 4 17 7 -2 3 7 14 20 24 14 10 22 22 19 27 -3 5 3 6 12 2 14 -5
16 -3 11 12 -6 15 -5 16 8 5 11 -9 15 -9 15 -1 0 7 5 9 13 5 7 -5 6 0 -3 11
-9 11 -10 16 -2 11 7 -4 12 -2 12 6 0 10 3 9 11 -2 9 -12 10 -10 6 8 -5 20 -2
22 16 16 12 -3 19 -3 15 1 -8 9 14 35 25 28 4 -2 7 1 7 7 0 6 4 9 9 6 4 -3 13
6 19 19 7 14 18 25 26 25 8 0 18 4 21 10 3 6 -1 7 -12 4 -17 -5 -17 -5 0 6 22
14 77 66 58 55 -9 -5 -12 -4 -7 3 4 6 13 9 21 5 10 -3 15 2 15 17 0 11 5 18
10 15 6 -3 10 -1 10 6 0 6 9 20 21 30 11 10 18 23 14 29 -3 6 -3 10 2 9 18 -3
47 3 36 8 -10 3 -9 8 2 20 8 8 12 19 9 25 -4 6 -2 8 3 5 14 -9 37 19 28 34 -6
8 -2 8 13 0 18 -10 20 -9 17 10 -3 16 -1 18 9 10 11 -9 12 -6 9 13 -3 13 1 27
8 31 7 5 10 4 6 -2 -3 -5 0 -10 8 -10 11 0 12 5 3 20 -7 14 -7 18 1 12 7 -4
26 8 44 26 18 17 26 29 19 25 -7 -5 -12 -1 -12 10 0 10 3 14 7 11 3 -4 12 1
19 11 12 15 15 15 24 2 8 -12 9 -10 6 10 -2 17 3 29 18 38 15 10 16 12 3 8
-11 -3 -15 -2 -12 4 3 6 13 10 21 10 8 0 14 5 14 11 0 5 6 7 13 3 9 -6 9 -4
-1 8 -11 13 -10 16 5 14 10 0 19 7 21 18 6 28 30 49 44 40 9 -5 8 -2 -1 10 -8
9 -10 16 -5 15 21 -4 31 3 48 32 13 23 15 30 5 25 -8 -4 -6 -1 4 7 9 8 17 19
17 26 0 6 7 11 15 11 13 0 20 18 16 42 0 4 6 5 13 2 11 -4 14 1 12 20 -2 14 0
25 3 24 21 -2 31 4 25 14 -5 8 -2 9 9 5 10 -3 17 -2 17 2 0 5 -6 12 -12 14
-10 4 -10 6 0 6 7 1 10 6 7 11 -3 6 1 10 9 10 9 0 16 9 16 21 0 11 5 17 10 14
9 -5 15 15 11 37 0 4 7 4 17 1 15 -6 15 -5 3 11 -8 9 -10 16 -5 15 21 -4 28 2
14 11 -13 8 -13 10 2 10 12 0 15 5 11 17 -4 11 -3 14 5 9 7 -4 12 -1 12 8 0 8
10 22 22 30 12 9 17 16 10 16 -7 0 -4 8 8 20 11 11 21 25 21 30 1 6 2 16 3 23
1 6 8 11 16 9 11 -3 11 0 -1 14 -9 12 -9 15 -1 10 11 -7 17 5 13 28 -1 5 5 3
14 -4 13 -11 15 -10 9 4 -3 9 -1 16 5 16 6 0 8 7 4 17 -4 10 -2 14 4 10 7 -5
10 1 7 15 -2 13 -1 17 2 9 5 -9 11 -3 22 20 8 19 14 37 14 42 -1 4 4 7 12 7 9
0 12 7 9 19 -3 10 1 22 8 26 8 6 10 4 4 -5 -5 -9 -4 -11 3 -6 9 5 9 13 2 26
-8 16 -7 18 4 14 9 -3 13 1 13 13 -1 10 3 17 9 16 8 -1 10 6 6 19 -4 16 -2 20
10 16 11 -5 14 0 10 19 -4 20 -2 24 9 18 12 -8 12 -6 0 8 -9 11 -10 17 -2 17
6 0 11 7 11 15 0 8 5 15 10 15 6 0 9 3 8 8 -4 16 14 52 24 46 6 -4 6 1 -1 14
-10 18 -7 23 16 37 26 15 26 15 3 9 -23 -6 -23 -6 -7 10 9 10 22 14 28 10 7
-4 9 -3 5 4 -3 5 0 13 6 16 7 3 2 3 -11 0 l-25 -7 26 24 c14 13 24 32 22 42
-1 9 2 17 7 17 5 0 9 7 9 16 0 9 -5 13 -12 9 -7 -4 -2 3 12 14 22 18 21 26 -3
22 -5 -1 -6 3 -2 9 3 6 10 8 15 5 4 -3 11 7 14 20 4 15 11 23 17 19 7 -4 7 1
0 15 -8 15 -9 21 -1 21 6 0 8 5 5 11 -4 6 1 17 11 25 18 13 18 14 -1 8 -18 -5
-17 -3 4 15 13 12 18 21 11 21 -10 0 -10 3 -1 14 6 8 13 27 14 44 1 16 6 28
11 24 5 -3 7 4 4 16 -4 13 0 23 9 26 8 3 12 10 8 16 -3 5 -1 19 6 31 9 17 8
20 -2 14 -9 -6 -11 -3 -6 9 4 10 7 20 7 22 0 3 5 2 10 -1 6 -3 10 -2 10 4 0 5
-6 12 -12 14 -7 3 -4 6 7 6 17 1 17 3 5 11 -8 5 -10 10 -4 10 6 0 11 8 11 18
0 33 3 43 11 38 4 -2 8 4 9 14 1 11 -2 22 -8 25 -5 3 -6 -2 -3 -12 5 -15 4
-15 -4 -3 -13 17 -5 33 10 24 7 -5 9 -1 5 9 -4 10 -2 17 5 17 6 0 5 6 -3 17
-12 15 -12 16 4 10 11 -4 16 -3 12 4 -4 5 -2 15 4 22 5 7 6 19 2 26 -6 9 -1
27 12 50 17 29 18 33 4 22 -10 -8 -20 -11 -24 -7 -3 3 -1 6 6 6 8 0 11 8 8 20
-3 11 0 23 5 27 7 4 8 1 3 -8 -5 -8 -4 -11 0 -7 14 13 15 59 2 51 -7 -4 -6 0
2 10 7 9 11 24 7 32 -3 8 -1 15 4 15 5 0 6 7 3 17 -5 12 -3 14 8 8 11 -7 11
-5 -1 10 -8 10 -10 16 -4 12 7 -4 12 2 12 18 0 14 -4 25 -9 25 -5 0 -9 5 -9
11 0 5 4 8 9 5 5 -3 7 7 6 23 -2 23 1 28 14 24 12 -3 11 -1 -3 11 -20 16 -20
16 0 16 16 0 17 2 4 10 -8 5 -11 10 -6 10 5 0 2 8 -5 17 -12 15 -12 16 4 10
13 -5 16 -3 10 6 -11 18 -13 38 -2 31 9 -5 13 31 9 94 -1 17 3 32 9 32 6 0 11
5 11 11 0 5 -6 7 -12 3 -9 -5 -9 -2 1 9 11 14 11 17 0 18 -8 0 -5 4 6 9 19 8
19 9 1 9 -16 1 -17 3 -5 18 12 15 12 16 -1 8 -12 -6 -13 -5 -2 6 6 7 12 17 12
22 0 4 -6 5 -12 1 -9 -6 -9 -3 0 9 8 9 10 22 6 28 -4 7 -3 9 4 5 6 -3 13 -2
17 4 3 5 1 10 -6 10 -9 0 -9 3 0 14 9 11 9 16 0 21 -8 6 -7 10 2 16 12 7 12 9
0 9 -11 0 -11 3 -1 15 10 12 10 15 0 15 -9 0 -10 3 -1 13 8 10 7 17 -1 25 -9
9 -9 12 1 12 11 0 11 3 1 15 -10 12 -10 15 1 15 12 0 12 2 1 9 -8 4 -14 12
-14 16 0 4 6 12 14 16 10 7 10 9 0 9 -10 0 -10 5 -2 20 8 15 8 20 -1 20 -9 0
-9 3 0 14 9 11 9 16 0 21 -8 6 -7 10 2 16 12 7 12 9 0 9 -11 0 -11 3 -1 15 10
12 10 15 0 15 -10 0 -10 3 0 15 12 14 7 19 -15 16 -5 -1 -2 5 8 13 13 10 15
16 7 21 -9 6 -9 10 1 16 12 7 12 9 0 9 -10 0 -11 3 -2 13 8 10 7 17 -1 25 -9
9 -9 12 1 12 11 0 11 3 1 15 -10 12 -10 15 1 15 10 0 10 3 2 11 -8 8 -8 20 -3
35 6 15 5 26 -1 30 -7 4 -7 10 0 18 8 9 5 19 -10 34 -20 22 -13 31 9 12 9 -7
9 -7 2 2 -5 7 -10 20 -10 30 0 10 -6 18 -12 18 -7 1 -2 7 11 14 l24 14 -22 7
c-21 6 -22 7 -4 21 17 13 17 14 -2 7 -18 -6 -18 -5 -6 10 9 12 10 17 2 17 -7
0 -9 5 -5 11 3 6 0 15 -7 20 -8 5 -9 9 -3 9 7 0 10 16 7 43 -2 23 -5 48 -5 54
-1 9 -5 10 -14 2 -11 -9 -11 -5 -4 20 5 17 5 31 0 31 -4 0 -6 10 -2 22 4 16 2
19 -9 13 -12 -8 -12 -6 0 8 7 9 9 17 3 17 -5 0 -9 11 -8 24 1 20 4 22 16 13 8
-7 1 6 -15 27 -17 22 -25 37 -19 33 7 -4 11 7 10 32 0 22 -4 37 -8 35 -4 -2
-5 -14 -3 -26 3 -11 1 -18 -3 -14 -11 11 -9 65 3 60 5 -3 3 0 -6 8 -21 17 -23
29 -7 39 10 7 10 9 0 9 -7 0 -11 4 -7 9 3 5 0 15 -7 23 -17 18 -21 38 -7 38 6
0 3 8 -8 18 -10 9 -14 14 -8 10 14 -9 13 27 0 39 -4 5 -5 2 0 -6 5 -9 4 -12
-3 -7 -17 10 -16 49 1 41 6 -4 3 1 -7 9 -12 9 -14 16 -7 16 9 0 7 5 -4 16 -13
13 -13 19 -3 32 10 12 10 14 1 8 -13 -7 -15 -1 -17 66 -1 20 -4 24 -13 16 -9
-7 -11 -4 -8 13 3 12 1 27 -4 33 -4 6 -7 21 -6 33 1 12 -3 21 -8 20 -6 -1 -11
14 -11 33 -1 25 -7 37 -21 43 -15 6 -16 10 -6 16 10 6 10 10 1 16 -6 4 -9 14
-6 22 4 9 2 11 -6 7 -7 -5 -9 0 -6 14 5 16 1 22 -10 23 -10 0 -12 3 -5 6 9 3
7 11 -7 26 -11 11 -17 23 -13 26 5 3 9 12 11 20 3 12 0 12 -12 2 -11 -9 -16
-9 -22 0 -4 8 -3 9 4 5 7 -4 12 -3 12 3 0 5 -5 13 -11 17 -8 4 -7 9 2 15 10 6
11 9 2 9 -7 0 -13 12 -13 26 0 22 -3 24 -14 15 -12 -10 -13 -8 -9 9 4 13 -1
26 -12 34 -11 8 -15 18 -10 26 4 7 3 15 -3 19 -5 3 -12 17 -13 31 -2 14 -6 27
-9 30 -14 13 -41 62 -31 56 7 -5 9 -1 5 8 -3 9 -14 16 -23 16 -12 0 -13 2 -3
9 11 7 11 9 -2 14 -9 4 -16 13 -16 22 0 8 -5 15 -12 15 -6 0 -3 7 8 15 19 14
18 14 -2 10 -18 -3 -21 0 -16 17 3 14 1 19 -6 14 -11 -6 -17 12 -13 37 0 4 -4
7 -10 7 -6 0 -9 6 -6 14 7 17 -26 49 -38 39 -5 -5 -3 0 5 10 7 10 9 17 4 15
-5 -2 -10 1 -11 5 -1 4 -9 15 -18 23 -8 9 -13 20 -10 25 4 5 -2 9 -12 10 -16
0 -16 1 2 9 19 8 19 9 -2 9 -16 1 -21 6 -18 21 2 11 -1 19 -8 17 -6 -1 -12 4
-13 11 -1 6 -2 17 -3 22 0 6 -6 10 -12 10 -5 0 -7 -5 -3 -12 4 -7 3 -8 -5 -4
-9 6 -9 11 0 22 8 10 8 14 0 14 -6 0 -11 5 -11 11 0 5 5 7 12 3 7 -4 8 -3 4 5
-4 6 -10 9 -14 7 -4 -2 -13 2 -20 10 -7 8 -10 14 -5 14 4 0 -2 7 -13 15 -18
14 -18 15 0 8 18 -6 18 -5 0 15 -19 23 -30 29 -19 13 3 -5 0 -13 -7 -17 -7 -4
-10 -4 -6 1 4 4 3 17 -3 28 -8 14 -8 18 0 13 6 -4 11 -2 11 3 0 6 -8 11 -17
12 -11 0 -13 3 -6 6 10 3 9 8 -2 20 -8 8 -12 20 -8 26 4 7 1 7 -9 -1 -14 -11
-16 -10 -11 7 4 15 1 21 -12 21 -11 0 -15 5 -12 14 3 8 -2 20 -11 28 -13 11
-14 11 -7 -1 5 -9 4 -12 -3 -8 -5 4 -8 17 -6 30 2 12 2 16 -2 10 -3 -7 -10
-13 -15 -13 -6 0 -5 8 1 20 8 16 8 18 -4 14 -8 -3 -17 0 -22 7 -4 8 -3 10 4 5
20 -12 13 9 -8 24 -14 10 -17 17 -8 27 15 18 3 16 -16 -3 -14 -14 -15 -12 -12
15 4 33 -15 58 -35 45 -7 -4 -9 -3 -5 4 3 6 1 14 -5 17 -5 4 -8 14 -5 22 3 8
1 11 -4 8 -9 -5 -14 7 -12 26 1 4 -6 6 -16 5 -9 0 -16 5 -15 12 2 6 -5 12 -15
12 -14 0 -15 2 -2 10 13 8 12 10 -3 10 -10 0 -16 4 -13 9 3 5 -1 12 -10 15 -8
3 -12 10 -9 16 4 6 -1 7 -12 3 -16 -6 -16 -5 -4 10 7 9 11 18 7 18 -3 1 -11 2
-16 3 -14 1 -30 28 -24 38 3 4 -2 8 -11 8 -10 0 -13 5 -9 12 5 8 2 9 -10 5 -9
-4 -15 -3 -11 2 3 6 -3 14 -12 20 -10 6 -14 11 -9 11 5 0 -3 9 -18 21 -14 11
-26 27 -26 35 0 10 -5 12 -12 8 -8 -5 -7 0 2 11 8 10 10 16 4 12 -13 -8 -57
27 -47 37 3 3 1 6 -6 6 -7 0 -9 5 -5 12 5 8 0 9 -15 5 -17 -4 -20 -3 -11 8 8
9 5 14 -11 18 -14 4 -20 11 -16 21 4 9 1 15 -6 13 -7 -1 -11 4 -9 12 3 12 0
12 -12 1 -13 -10 -16 -10 -17 1 -1 8 -1 18 0 23 1 5 -5 6 -13 3 -11 -4 -13 -1
-9 10 5 12 3 14 -7 8 -10 -6 -12 -4 -7 8 4 11 2 14 -7 11 -17 -6 -40 22 -30
37 4 7 3 9 -4 5 -6 -3 -15 1 -20 10 -5 9 -13 16 -18 15 -5 0 -8 7 -8 15 1 9 0
13 -3 10 -3 -3 -15 0 -27 6 -20 11 -20 10 -6 -8 14 -18 14 -18 -2 -5 -10 7
-18 22 -18 32 0 11 -6 18 -12 16 -7 -1 -12 4 -10 12 2 11 0 12 -11 3 -19 -16
-30 -3 -14 16 9 13 9 14 0 8 -7 -4 -13 -2 -13 3 0 6 -9 11 -21 11 -11 0 -17 5
-14 10 3 6 -1 10 -9 10 -9 0 -16 7 -16 16 0 8 -4 12 -10 9 -5 -3 -10 -2 -10 3
0 5 -13 15 -30 22 -16 7 -27 16 -24 21 3 5 -2 9 -10 9 -9 0 -16 7 -16 16 0 10
-5 14 -16 10 -8 -3 -12 -2 -9 4 6 9 -8 14 -28 11 -5 -1 -6 3 -2 9 3 5 1 10 -5
10 -6 0 -8 5 -5 10 6 9 -8 15 -29 11 -5 -1 -6 6 -2 15 5 14 4 15 -8 5 -11 -9
-15 -6 -20 15 -6 22 -9 24 -23 12 -14 -11 -16 -11 -8 1 6 11 4 13 -10 7 -15
-5 -16 -4 -5 9 11 13 11 16 -1 13 -8 -2 -13 2 -12 9 2 7 -4 10 -12 7 -11 -5
-13 -2 -8 12 6 17 5 18 -12 4 -15 -12 -17 -12 -10 -1 6 11 4 13 -8 8 -9 -3
-19 -1 -23 5 -5 7 -2 8 7 3 8 -5 5 1 -5 13 -20 23 -32 30 -21 12 3 -6 -1 -7
-9 -4 -16 6 -20 16 -17 44 1 9 -1 11 -6 5 -9 -12 -54 -15 -47 -4 2 4 -5 14
-16 22 -11 7 -17 18 -12 23 4 4 -2 2 -12 -6 -13 -10 -17 -10 -12 -2 4 7 2 12
-4 12 -6 0 -8 4 -5 10 3 6 -1 7 -9 4 -9 -3 -16 -1 -16 6 0 6 -4 9 -9 5 -5 -3
-12 4 -16 14 -4 12 -12 18 -21 14 -7 -3 -14 0 -14 7 0 6 -4 8 -10 5 -5 -3 -10
-1 -10 4 0 6 -7 11 -16 11 -8 0 -13 4 -10 9 3 5 -1 12 -10 15 -8 3 -12 2 -9
-3 3 -5 1 -13 -5 -16 -6 -4 -10 -3 -9 2 4 22 -2 43 -11 38 -5 -3 -10 -1 -10 4
0 6 -9 11 -20 11 -11 0 -20 7 -20 16 0 8 -4 12 -10 9 -5 -3 -10 -1 -10 4 0 6
-3 10 -7 10 -22 -4 -33 3 -34 19 0 14 -2 14 -9 -3 -7 -17 -9 -17 -9 -3 -1 12
-6 15 -18 11 -12 -5 -14 -3 -8 7 6 10 3 12 -13 8 -16 -5 -20 -2 -17 14 4 16 2
18 -10 8 -12 -10 -15 -10 -15 0 0 7 -7 10 -16 6 -8 -3 -13 -2 -11 2 7 11 -17
29 -35 26 -10 -1 -15 3 -12 11 4 10 -1 12 -17 8 -15 -4 -20 -3 -15 5 4 7 -3
14 -19 18 -13 3 -23 9 -20 13 2 4 -2 8 -10 8 -8 0 -15 -5 -15 -11 -1 -6 -7 0
-15 14 -9 15 -14 19 -15 10 0 -13 -1 -13 -10 0 -6 9 -5 17 3 22 7 4 8 8 1 8
-5 0 -15 -5 -22 -12 -9 -9 -12 -9 -12 1 0 7 -5 9 -10 6 -6 -3 -13 1 -16 10 -6
14 -8 14 -19 -2 -13 -17 -13 -17 -12 1 1 10 -4 21 -12 24 -8 3 -11 0 -7 -7 5
-7 1 -9 -9 -5 -10 4 -12 10 -6 18 7 8 2 11 -17 10 -15 0 -34 7 -44 18 -11 13
-19 15 -23 8 -5 -8 -11 -8 -19 -1 -7 6 -16 8 -20 4 -4 -4 -4 0 -1 9 5 13 1 16
-19 14 -14 -2 -23 0 -21 4 3 5 -2 11 -11 14 -8 3 -12 11 -8 17 4 8 3 9 -5 5
-6 -4 -8 -13 -4 -19 5 -8 2 -8 -9 0 -8 7 -19 9 -23 5 -5 -4 -5 1 -2 10 5 14 1
17 -23 14 -16 -2 -27 1 -24 5 5 8 -10 13 -28 10 -5 0 -8 3 -8 9 0 5 -9 10 -19
10 -11 0 -21 6 -24 13 -3 9 -7 9 -20 -2 -12 -9 -17 -10 -17 -2 0 7 -4 10 -9 6
-5 -3 -17 3 -27 12 -10 10 -19 17 -21 16 -9 -8 -23 -2 -18 7 9 14 -8 12 -24
-2 -11 -10 -13 -10 -7 0 5 8 -2 12 -23 12 -18 0 -31 5 -31 13 0 8 -4 7 -10 -3
-8 -13 -10 -12 -10 4 0 15 -3 16 -15 6 -12 -10 -16 -10 -19 1 -13 43 -14 44
-15 26 -1 -10 -5 -16 -10 -12 -5 3 -12 1 -16 -5 -8 -13 -25 -13 -25 1 0 5 5 7
10 4 6 -3 10 -2 10 3 0 12 -26 23 -34 14 -12 -11 -36 -11 -29 1 4 6 0 8 -10 4
-9 -3 -19 -1 -23 5 -5 7 -2 8 6 3 9 -5 11 -4 6 4 -6 9 -11 9 -21 1 -10 -8 -16
-7 -24 7 -6 10 -11 13 -11 8 0 -17 -55 -10 -58 8 -2 8 -12 15 -22 14 -10 -1
-17 -4 -14 -8 2 -4 -1 -11 -7 -15 -7 -4 -9 -3 -6 3 4 6 -1 17 -10 24 -12 10
-14 10 -9 2 4 -7 2 -13 -3 -13 -6 0 -11 5 -11 12 0 9 -3 9 -12 0 -15 -15 -32
-16 -23 -2 3 6 -1 10 -10 10 -9 0 -13 4 -10 10 3 6 -1 7 -9 4 -9 -3 -13 -11
-9 -18 3 -6 -4 -2 -17 9 -14 12 -20 14 -15 5 8 -13 7 -13 -8 -1 -14 11 -17 11
-17 0 0 -12 -2 -12 -9 0 -5 8 -16 11 -26 8 -9 -4 -14 -3 -10 3 3 6 -1 7 -9 4
-9 -3 -16 -1 -16 6 0 6 -4 8 -10 5 -5 -3 -10 -1 -10 4 0 6 -5 11 -11 11 -5 0
-7 -5 -3 -11 5 -8 1 -8 -13 0 -11 6 -23 7 -27 4 -3 -3 -6 -2 -6 4 0 6 -7 14
-16 17 -8 3 -13 2 -10 -3 3 -5 -9 -6 -27 -2 -41 8 -69 7 -84 -2 -9 -5 -11 -3
-7 6 3 8 -2 20 -11 27 -13 11 -14 10 -9 -4 5 -12 2 -15 -12 -9 -13 5 -15 3 -9
-8 7 -11 6 -12 -6 -3 -24 18 -51 25 -44 11 4 -6 0 -4 -8 6 -14 17 -33 24 -23
8 3 -5 -8 -8 -24 -7 -17 0 -30 4 -30 9 0 4 -6 5 -12 0 -21 -12 -59 -11 -87 3
-17 9 -29 10 -37 3 -8 -7 -15 -6 -20 2 -4 8 -3 9 4 5 7 -4 12 -2 12 3 0 14 -6
14 -32 0 -17 -9 -23 -8 -30 4 -5 10 -15 14 -25 10 -12 -5 -14 -3 -8 7 5 9 4
11 -4 6 -6 -4 -9 -12 -6 -17 4 -5 2 -9 -4 -9 -5 0 -15 8 -20 18 -8 14 -10 14
-11 2 0 -9 -9 -16 -20 -16 -11 0 -19 5 -16 11 2 7 -2 12 -10 12 -7 0 -10 -5
-7 -11 4 -6 -1 -5 -11 3 -15 13 -19 13 -27 0 -5 -8 -9 -9 -9 -3 0 13 -70 15
-87 2 -7 -6 -14 -4 -19 3 -5 8 -3 9 6 4 8 -5 11 -4 6 3 -7 12 -37 5 -48 -12
-5 -8 -8 -8 -8 0 0 15 -152 14 -162 0 -5 -8 -8 -8 -8 0 0 6 -17 10 -42 10 -24
-1 -48 2 -53 6 -6 4 -17 3 -24 -1z m-2138 -646 c-3 -9 -8 -14 -10 -11 -3 3 -2
9 2 15 9 16 15 13 8 -4z m-311 -187 c-7 -7 -12 -8 -12 -2 0 14 12 26 19 19 2
-3 -1 -11 -7 -17z m7183 -1898 c3 -5 1 -10 -4 -10 -6 0 -11 5 -11 10 0 6 2 10
4 10 3 0 8 -4 11 -10z m-110 -4640 c-3 -5 -12 -10 -18 -10 -7 0 -6 4 3 10 19
12 23 12 15 0z m-285 -454 c0 -2 -8 -10 -17 -17 -16 -13 -17 -12 -4 4 13 16
21 21 21 13z m-8109 -33 c13 -16 12 -17 -3 -4 -10 7 -18 15 -18 17 0 8 8 3 21
-13z m900 -940 c13 -16 12 -17 -3 -4 -10 7 -18 15 -18 17 0 8 8 3 21 -13z
m1669 -889 c0 -8 -19 -13 -24 -6 -3 5 1 9 9 9 8 0 15 -2 15 -3z"/>
<path d="M4926 10322 c-3 -5 1 -9 9 -9 8 0 12 4 9 9 -3 4 -7 8 -9 8 -2 0 -6
-4 -9 -8z"/>
<path d="M5906 10292 c-3 -5 1 -9 9 -9 8 0 12 4 9 9 -3 4 -7 8 -9 8 -2 0 -6
-4 -9 -8z"/>
<path d="M7370 9921 c0 -5 5 -13 10 -16 6 -3 10 -2 10 4 0 5 -4 13 -10 16 -5
3 -10 2 -10 -4z"/>
<path d="M8255 9420 c3 -5 8 -10 11 -10 2 0 4 5 4 10 0 6 -5 10 -11 10 -5 0
-7 -4 -4 -10z"/>
<path d="M9180 8606 c0 -2 8 -10 18 -17 15 -13 16 -12 3 4 -13 16 -21 21 -21
13z"/>
<path d="M674 3689 c-3 -6 -2 -15 3 -20 5 -5 9 -1 9 11 0 23 -2 24 -12 9z"/>
<path d="M1580 2166 c0 -2 7 -7 16 -10 8 -3 12 -2 9 4 -6 10 -25 14 -25 6z"/>
<path d="M7240 710 c-8 -5 -12 -12 -9 -15 4 -3 12 1 19 10 14 17 11 19 -10 5z"/>
<path d="M5560 416 c0 -2 8 -10 18 -17 15 -13 16 -12 3 4 -13 16 -21 21 -21
13z"/>
<path d="M5626 408 c3 -5 10 -6 15 -3 13 9 11 12 -6 12 -8 0 -12 -4 -9 -9z"/>
</g>
</svg>
